<svg xmlns="http://www.w3.org/2000/svg" width="1440" height="400" preserveAspectRatio="none"><g mask="url(&quot;#SvgjsMask1022&quot;)" fill="none"><path fill="url(&quot;#SvgjsLinearGradient1023&quot;)" d="M0 0h1440v400H0z"/><path d="M330.81 376.19a105.42 105.42 0 1 0 210.84 0 105.42 105.42 0 1 0-210.84 0z" fill="rgba(40, 19, 121, 0.4)" style="animation:float1 5s infinite"/><path d="M880.315 292.194c15.481-.68 26.522-13.612 33.646-27.373 6.47-12.497 7.972-27.205.912-39.378-7.037-12.133-20.543-19.195-34.558-18.63-13.134.53-22.959 10.164-30.046 21.235-7.898 12.336-15.351 26.705-9.138 39.97 6.977 14.896 22.751 24.897 39.184 24.176" fill="rgba(40, 19, 121, 0.4)" class="triangle-float3"/><path d="M1136.07 233.38a75.05 75.05 0 1 0 150.1 0 75.05 75.05 0 1 0-150.1 0z" fill="rgba(40, 19, 121, 0.4)" style="animation:float2 4s infinite"/><path d="M1326.925 374.871c10.935-.028 20.408-6.637 26.115-15.964 6.004-9.812 9.185-22.176 3.253-32.032-5.801-9.638-18.119-11.344-29.368-11.357-11.279-.013-23.641 1.642-29.482 11.291-5.991 9.898-2.912 22.369 3.138 32.231 5.741 9.359 15.364 15.859 26.344 15.831" fill="rgba(40, 19, 121, 0.4)" class="triangle-float3"/></g><defs><linearGradient x1="81.94%" y1="165%" x2="18.06%" y2="-65%" gradientUnits="userSpaceOnUse" id="SvgjsLinearGradient1023"><stop stop-color="rgba(212, 203, 255, 1)" offset=".07"/><stop stop-color="rgba(255, 255, 255, 0.73)" offset="1"/></linearGradient><style>@keyframes float1{0%,to{transform:translate(0,0)}50%{transform:translate(-10px,0)}}@keyframes float2{0%,to{transform:translate(0,0)}50%{transform:translate(-5px,-5px)}}@keyframes float3{0%,to{transform:translate(0,0)}50%{transform:translate(0,-10px)}}.triangle-float3{animation:float3 6s infinite}</style><mask id="SvgjsMask1022"><path fill="#fff" d="M0 0h1440v400H0z"/></mask></defs></svg>