<svg height="34.667" width="53.333" xmlns="http://www.w3.org/2000/svg"><clipPath id="a"><path d="M230 75.004c0 24.851 20.145 45 45 45s45-20.148 45-45S299.855 30 275 30s-45 20.152-45 45.004z"/></clipPath><path d="M53.333 34.667H0V0h53.333z" fill="#eee"/><path d="M30.667 24.666a6 6 0 1 1 12 0 6 6 0 0 1-12 0" fill="#d93232"/><path d="M38.667 24.666a6 6 0 1 1 12 0 6 6 0 0 1-12 0" fill="#ed9e28"/><g fill="#265697"><path d="m22.308 13.093.194-1.5c-.106 0-.259.052-.395.052-.531 0-.59-.327-.557-.567l.43-3.062h.81l.193-1.66h-.76l.154-1.03h-1.529c-.033.038-.904 5.804-.904 6.503 0 1.04.508 1.502 1.22 1.496.556-.005.992-.183 1.144-.232M25.473 8.127c.86 0 .704 1.043.704 1.126H24.48c0-.107.16-1.126.992-1.126zm-2.68 2.32c0 2.322 1.426 2.874 2.642 2.874 1.12 0 1.611-.27 1.611-.27l.27-1.584s-.853.404-1.624.404c-1.64 0-1.353-1.315-1.353-1.315h3.104s.202-1.066.202-1.497c0-1.086-.5-2.404-2.18-2.404-1.534 0-2.672 1.78-2.672 3.792M35.147 13.112l.272-1.76s-.747.396-1.264.396c-1.082 0-1.519-.873-1.519-1.814 0-1.906.934-2.956 1.973-2.956.776 0 1.405.462 1.405.462l.247-1.711s-.927-.396-1.721-.396c-1.763 0-3.48 1.617-3.48 4.656 0 2.014.926 3.344 2.752 3.344.513 0 1.335-.221 1.335-.221M14.235 10.352c.027.277-.163 1.58-1.082 1.58-.473 0-.6-.393-.6-.624 0-.451.229-.994 1.35-.994.26 0 .289.03.332.038zm-.33-3.704c-1.046 0-1.848.365-1.848.365l-.222 1.422s.663-.29 1.663-.29c.57 0 .988.069.988.568 0 .305-.051.416-.051.416s-.451-.042-.658-.042c-1.321 0-2.71.61-2.71 2.447 0 1.448.914 1.781 1.477 1.781 1.076 0 1.54-.756 1.565-.76l-.05.632h1.347l.6-4.546c0-1.93-1.558-1.993-2.1-1.993M17.432 13.284c.347 0 2.313.096 2.313-2.114 0-2.065-1.82-1.655-1.82-2.485 0-.414.296-.542.839-.542.217 0 1.045.075 1.045.075L20 6.75s-.534-.133-1.407-.133c-1.132 0-2.276.493-2.276 2.17 0 1.903 1.911 1.711 1.911 2.513 0 .536-.535.58-.948.58-.71 0-1.35-.267-1.354-.256l-.205 1.453c.038.013.433.206 1.712.206M47.094 9.63c0 .877-.402 2.05-1.23 2.05-.55 0-.807-.502-.807-1.29 0-1.288.532-2.14 1.2-2.14.55 0 .837.414.837 1.38zm.706-4.334-.329 2.223s-.575-.863-1.474-.863c-1.4 0-2.564 1.832-2.564 3.941 0 1.363.619 2.695 1.892 2.695.912 0 1.422-.695 1.422-.695l-.067.594h1.486l1.167-7.899zM5.635 13.205l.93-6.033.137 6.033h1.052l1.963-6.033-.87 6.033h1.566l1.203-8h-2.42l-1.503 4.908-.078-4.908h-2.23l-1.222 8zM29.17 13.214c.45-2.808.529-5.093 1.59-4.674.188-1.089.368-1.509.569-1.97 0 0-.095-.023-.296-.023-.684 0-1.19 1.04-1.19 1.04l.137-.954h-1.423l-.953 6.581zM38.998 10.352c.033.277-.158 1.58-1.078 1.58-.477 0-.599-.393-.599-.624 0-.451.226-.994 1.349-.994.26 0 .284.03.328.038zm-.328-3.704c-1.045 0-1.847.365-1.847.365L36.6 8.435s.662-.29 1.667-.29c.565 0 .982.069.982.568 0 .305-.05.416-.05.416s-.448-.042-.659-.042c-1.323 0-2.708.61-2.708 2.447 0 1.448.909 1.781 1.474 1.781 1.077 0 1.545-.756 1.567-.76l-.05.632h1.346l.6-4.546c0-1.93-1.556-1.993-2.1-1.993M42 13.214c.445-2.808.527-5.093 1.586-4.674.187-1.089.368-1.509.567-1.97 0 0-.092-.023-.292-.023-.683 0-1.191 1.04-1.191 1.04l.135-.954h-1.423l-.953 6.581z"/></g><g clip-path="url(#a)" fill="#d93232" transform="matrix(.13333 0 0 -.13333 0 34.667)"><path d="M320 90h-30v10h30zM320 70.004h-30v10h30zM320 50.004h-30v10h30z"/></g></svg>