<svg viewBox="0 0 468 300" xmlns="http://www.w3.org/2000/svg"><g fill="none"><path d="M426.089 0H41.912c-1.6 0-3.203 0-4.8.01-1.35.009-2.698.024-4.045.06-2.937.08-5.9.254-8.801.776-2.947.531-5.69 1.397-8.366 2.761A28.083 28.083 0 0 0 8.775 8.79 28.072 28.072 0 0 0 3.6 15.924c-1.362 2.679-2.228 5.426-2.755 8.38-.524 2.905-.699 5.87-.778 8.81a199.264 199.264 0 0 0-.06 4.045C0 38.762 0 40.364 0 41.97v216.065c0 1.606 0 3.204.007 4.81.009 1.349.024 2.697.06 4.046.08 2.936.254 5.902.778 8.807.527 2.954 1.393 5.7 2.755 8.38a28.018 28.018 0 0 0 5.175 7.134 27.918 27.918 0 0 0 7.125 5.182c2.676 1.367 5.419 2.234 8.366 2.765 2.9.518 5.864.695 8.801.775 1.347.03 2.694.048 4.044.055 1.598.012 3.2.012 4.8.012H426.09c1.597 0 3.2 0 4.797-.012a225.08 225.08 0 0 0 4.047-.055c2.932-.08 5.894-.257 8.802-.775 2.943-.531 5.686-1.398 8.362-2.765a27.944 27.944 0 0 0 7.126-5.182 28.184 28.184 0 0 0 5.175-7.134c1.365-2.68 2.23-5.426 2.754-8.38.525-2.905.695-5.871.774-8.807.037-1.349.055-2.697.062-4.046.012-1.606.012-3.204.012-4.81V41.969c0-1.605 0-3.207-.012-4.81a178.791 178.791 0 0 0-.062-4.046c-.079-2.938-.25-5.904-.774-8.81-.524-2.953-1.389-5.7-2.754-8.38a28.109 28.109 0 0 0-12.3-12.316c-2.677-1.364-5.42-2.23-8.363-2.761-2.908-.522-5.87-.696-8.802-.775-1.353-.037-2.7-.052-4.047-.062C429.289 0 427.686 0 426.089 0z" fill="#333"/><path d="m426.077 10 4.726.01c1.28.008 2.56.022 3.848.057 2.239.06 4.858.182 7.3.62 2.122.383 3.902.965 5.61 1.836a18.072 18.072 0 0 1 4.581 3.332 18.213 18.213 0 0 1 3.347 4.615c.865 1.697 1.443 3.471 1.823 5.612.436 2.418.557 5.049.618 7.305.035 1.273.052 2.547.058 3.85.012 1.577.012 3.153.012 4.732v216.065c0 1.58 0 3.152-.012 4.763a169.326 169.326 0 0 1-.058 3.822c-.06 2.253-.182 4.881-.624 7.328-.374 2.112-.951 3.886-1.821 5.592a18.11 18.11 0 0 1-3.337 4.6 17.977 17.977 0 0 1-4.603 3.347c-1.696.866-3.473 1.448-5.574 1.827-2.491.444-5.22.566-7.276.622-1.293.03-2.58.047-3.898.053-1.571.012-3.148.012-4.72.012H41.86c-1.553 0-3.11 0-4.69-.012-1.29-.006-2.577-.023-3.821-.052-2.102-.057-4.833-.179-7.304-.62-2.12-.382-3.897-.964-5.614-1.842a17.917 17.917 0 0 1-4.587-3.34 17.991 17.991 0 0 1-3.332-4.595c-.866-1.704-1.446-3.484-1.827-5.62-.44-2.442-.561-5.06-.622-7.298a187.155 187.155 0 0 1-.057-3.835l-.006-3.76V40.977l.006-3.752c.008-1.28.023-2.561.057-3.841.06-2.24.182-4.86.626-7.322.378-2.117.957-3.897 1.828-5.61a18.04 18.04 0 0 1 3.334-4.593 18.054 18.054 0 0 1 4.593-3.34c1.7-.867 3.48-1.449 5.6-1.83 2.442-.44 5.063-.561 7.308-.622 1.28-.035 2.56-.049 3.83-.058l4.74-.009z" fill="#fff"/><g fill="#238ec2"><path d="m423.839 96.695-13.454 85.59a2.733 2.733 0 0 0 2.7 3.157h13.53c2.241 0 4.15-1.63 4.498-3.845l13.266-84.05a2.733 2.733 0 0 0-2.7-3.16h-15.14c-1.347 0-2.492.979-2.7 2.308M383.463 155.26c-1.515 8.969-8.635 14.99-17.715 14.99-4.553 0-8.197-1.465-10.54-4.238-2.323-2.749-3.197-6.664-2.46-11.025 1.413-8.888 8.648-15.102 17.59-15.102 4.458 0 8.076 1.477 10.465 4.276 2.404 2.818 3.349 6.76 2.66 11.099zm21.876-30.55h-15.696a2.73 2.73 0 0 0-2.699 2.306l-.691 4.389-1.096-1.59c-3.4-4.935-10.976-6.583-18.541-6.583-17.341 0-32.155 13.141-35.039 31.571-1.5 9.196.63 17.982 5.845 24.116 4.789 5.634 11.624 7.98 19.768 7.98 13.977 0 21.73-8.98 21.73-8.98l-.701 4.363a2.734 2.734 0 0 0 2.7 3.16h14.135c2.24 0 4.148-1.63 4.499-3.843l8.484-53.733a2.73 2.73 0 0 0-2.698-3.157zM311.147 125.085c-1.793 11.766-10.778 11.766-19.47 11.766h-4.946l3.469-21.968a2.733 2.733 0 0 1 2.7-2.306h2.266c5.917 0 11.505 0 14.386 3.37 1.724 2.018 2.246 5.007 1.595 9.138zm-3.783-30.698h-32.78a4.553 4.553 0 0 0-4.498 3.845l-13.255 84.052a2.732 2.732 0 0 0 2.698 3.158h16.819a3.188 3.188 0 0 0 3.149-2.69l3.76-23.83a4.553 4.553 0 0 1 4.497-3.845h10.373c21.591 0 34.052-10.449 37.309-31.16 1.466-9.057.06-16.174-4.181-21.157-4.663-5.477-12.925-8.373-23.89-8.373z"/></g><g fill="#253667"><path d="M255.142 124.71h-15.777c-1.51 0-2.92.748-3.768 1.995l-21.763 32.053-9.223-30.8a4.556 4.556 0 0 0-4.362-3.249h-15.51a2.734 2.734 0 0 0-2.587 3.615l17.373 50.99-16.34 23.056c-1.282 1.81.012 4.313 2.229 4.313h15.762a4.553 4.553 0 0 0 3.743-1.96L257.388 129c1.255-1.812-.041-4.29-2.246-4.29M149.668 155.26c-1.517 8.969-8.636 14.99-17.717 14.99-4.552 0-8.196-1.465-10.54-4.238-2.321-2.749-3.196-6.664-2.459-11.025 1.414-8.888 8.647-15.102 17.59-15.102 4.457 0 8.076 1.477 10.465 4.276 2.405 2.818 3.349 6.76 2.66 11.099zm21.874-30.55h-15.695a2.73 2.73 0 0 0-2.7 2.306l-.69 4.389-1.098-1.59c-3.398-4.935-10.974-6.583-18.539-6.583-17.34 0-32.154 13.141-35.038 31.571-1.5 9.196.63 17.982 5.843 24.116 4.79 5.634 11.626 7.98 19.77 7.98 13.977 0 21.729-8.98 21.729-8.98l-.7 4.363a2.734 2.734 0 0 0 2.7 3.16h14.133c2.242 0 4.15-1.63 4.498-3.843l8.487-53.733a2.731 2.731 0 0 0-2.7-3.157zM77.351 125.085c-1.792 11.766-10.78 11.766-19.47 11.766h-4.945l3.468-21.968a2.732 2.732 0 0 1 2.699-2.306h2.267c5.916 0 11.506 0 14.387 3.37 1.724 2.018 2.246 5.007 1.594 9.138zm-3.784-30.698h-32.78c-2.24 0-4.15 1.63-4.498 3.845l-13.255 84.052a2.733 2.733 0 0 0 2.7 3.158h15.65c2.242 0 4.15-1.63 4.498-3.845l3.577-22.675a4.556 4.556 0 0 1 4.5-3.845H64.33c21.593 0 34.053-10.449 37.31-31.16 1.465-9.057.06-16.174-4.183-21.157-4.66-5.477-12.923-8.373-23.89-8.373z"/></g></g></svg>